<?xml version="1.0" encoding="UTF-8" standalone="no"?>
<svg
   xmlns:dc="http://purl.org/dc/elements/1.1/"
   xmlns:cc="http://creativecommons.org/ns#"
   xmlns:rdf="http://www.w3.org/1999/02/22-rdf-syntax-ns#"
   xmlns:svg="http://www.w3.org/2000/svg"
   xmlns="http://www.w3.org/2000/svg"
   id="svg8"
   version="1.1"
   viewBox="0 0 63.788921 36.067999"
   height="136.31999"
   width="241.092">
  <defs
     id="defs2" />
  <metadata
     id="metadata5">
    <rdf:RDF>
      <cc:Work
         rdf:about="">
        <dc:format>image/svg+xml</dc:format>
        <dc:type
           rdf:resource="http://purl.org/dc/dcmitype/StillImage" />
        <dc:title></dc:title>
      </cc:Work>
    </rdf:RDF>
  </metadata>
  <g
     transform="translate(-33.854899,-210.87525)"
     id="layer1">
    <g
       id="text4487"
       style="font-style:normal;font-variant:normal;font-weight:normal;font-stretch:normal;font-size:10.58333302px;line-height:6.61458302px;font-family:Montserrat;-inkscape-font-specification:Montserrat;letter-spacing:0px;word-spacing:0px;fill:#000000;fill-opacity:1;stroke:none;stroke-width:0.26458332px;stroke-linecap:butt;stroke-linejoin:miter;stroke-opacity:1"
       aria-label="JB">
      <path
         id="path4489"
         style="font-style:normal;font-variant:normal;font-weight:800;font-stretch:normal;font-size:50.79999924px;font-family:Montserrat;-inkscape-font-specification:'Montserrat Ultra-Bold';stroke-width:0.26458332px"
         d="m 59.966098,234.70045 v -23.8252 H 37.207699 v 8.4328 h 12.0904 v 15.1384 c 0,2.3876 -1.2192,3.6068 -3.1496,3.6068 -1.9304,0 -4.7752,-1.27 -7.4676,-4.0132 l -4.826,6.9596 c 3.4036,3.7592 7.7216,5.9436 13.1572,5.9436 7.924799,0 12.953999,-4.4704 12.953999,-12.2428 z" />
      <path
         id="path4491"
         style="font-style:normal;font-variant:normal;font-weight:800;font-stretch:normal;font-size:50.79999924px;font-family:Montserrat;-inkscape-font-specification:'Montserrat Ultra-Bold';stroke-width:0.26458332px"
         d="m 82.861024,210.87525 h -17.4752 v 35.6108 h 18.2372 c 8.5344,0 14.0208,-3.8608 14.0208,-9.9568 0,-4.5212 -2.794,-8.0772 -7.1628,-8.9916 3.7084,-1.0668 6.0452,-4.064 6.0452,-7.6708 0,-5.4864 -5.334,-8.9916 -13.6652,-8.9916 z m -0.5588,13.97 h -6.4008 v -6.0452 h 6.4008 c 2.0828,0 3.4036,1.1176 3.4036,2.9464 0,1.8796 -1.3208,3.0988 -3.4036,3.0988 z m 0,13.716 h -6.4008 v -6.4516 h 6.4008 c 2.6924,-0.0508 4.4196,1.1684 4.4196,3.0988 0,2.0828 -1.7272,3.4036 -4.4196,3.3528 z" />
    </g>
  </g>
</svg>
